Coordinates
version=1
nRows=7
nColumns=33
inDegrees=yes

Units are S.I. units (second, meters, Newtons, ...)
Angles are in degrees.

endheader
time	ground_thorax_rot_x	ground_thorax_rot_y	ground_thorax_rot_z	ground_thorax_tx	ground_thorax_ty	ground_thorax_tz	clav_prot_r	clav_elev_r	scapula_abduction_r	scapula_elevation_r	scapula_upward_rot_r	scapula_winging_r	shoulder_elv_r	plane_of_elev_r	axial_rot_r	elbow_flexion_r	pro_sup_r	wrist_flex_r	wrist_dev_r	clav_prot_l	clav_elev_l	scapula_abduction_l	scapula_elevation_l	scapula_upward_rot_l	scapula_winging_l	shoulder_elv_l	plane_of_elev_l	axial_rot_l	elbow_flexion_l	pro_sup_l	wrist_flex_l	wrist_dev_l
      8.99000000	     40.28570896	     12.63998513	     13.81317336	   -221.55365201	    843.18517678	      3.77370876	     12.70344174	     40.19853221	     39.40017827	     45.00000000	    -29.27254505	  -2611.10583418	  -3172.13280878	     33.32921948	     46.32179348	   1452.24989203	     12.60615999	     19.72966930	      7.58697665	      7.23112954	    -45.00000000	    -37.06260671	     45.00000000	    -41.97430930	    458.21295309	    -92.04763643	    138.69982293	    152.30053727	   -349.38002265	     -3.87308098	      7.40816271	    -19.66716771
      9.00000000	     40.25912150	     12.61380881	     13.90372015	   -223.50264747	    844.23297667	      3.85783896	     12.72634054	     39.86396625	     39.32756970	     45.00000000	    -29.98906146	  -2611.13466888	  -3171.98901639	     33.59531536	     46.37528712	   1452.07953238	     12.16341393	     19.66734757	      7.37757915	      7.54764645	    -45.00000000	    -36.78878402	     45.00000000	    -43.00473262	    458.49070454	    -91.80612874	    138.34179232	    152.20548675	   -349.49032875	     -4.18951536	      7.14282602	    -19.64220142
      9.01000000	     40.22954791	     12.52758825	     13.79565967	   -225.42857678	    845.23756262	      3.94253439	     12.64485486	     39.96907876	     39.23052618	     45.00000000	    -29.88085172	  -2611.15298350	  -3171.90315751	     33.33657906	     46.39555005	   1452.23797478	     11.91462414	     19.73704412	      7.43725165	      7.38943939	    -45.00000000	    -36.96179556	     45.00000000	    -42.63927635	    458.61450634	    -91.85028929	    138.70916061	    151.69991287	   -349.36824803	     -4.19881036	      7.22009579	    -19.68403487
      9.02000000	     40.20896731	     12.48445019	     13.85953138	   -227.32859260	    846.19052048	      4.02707302	     12.65751350	     39.63023621	     39.19361594	     45.00000000	    -30.68954497	  -2611.23940492	  -3171.77109732	     33.63967775	     46.46340758	   1452.06804572	     11.62490234	     19.67863552	      7.13782269	      7.68134607	    -45.00000000	    -36.70097771	     45.00000000	    -43.80562708	    458.84910913	    -91.61415409	    138.29485618	    152.02916980	   -349.47213036	     -4.34957822	      6.87075838	    -19.67169994
      9.03000000	     40.17802911	     12.41103089	     13.81794217	   -229.19951342	    847.08336707	      4.11081508	     12.59011924	     39.72307724	     39.05055711	     45.00000000	    -30.59501691	  -2611.20865279	  -3171.66288542	     33.41333730	     46.54933169	   1452.21775537	     11.53393756	     19.74505920	      7.22571923	      7.57582728	    -45.00000000	    -36.78617280	     45.00000000	    -43.47263830	    459.01253634	    -91.65012549	    138.62986576	    151.32384670	   -349.36913656	     -4.15646666	      6.89955661	    -19.72086360
      9.04000000	     40.17116015	     12.34830407	     13.74725632	   -231.03865453	    847.90955720	      4.19364519	     12.53909879	     39.70524375	     38.94348382	     45.00000000	    -30.85437539	  -2611.22591752	  -3171.54143471	     33.38430564	     46.66574680	   1452.24362259	     11.51288940	     19.77546483	      7.13891411	      7.57279557	    -45.00000000	    -36.74034008	     45.00000000	    -43.50362920	    459.16613463	    -91.63671975	    138.70242073	    151.09872058	   -349.32529048	     -3.99740351	      6.79452722	    -19.74044710
      9.05000000	     40.12030901	     12.25981061	     13.78074693	   -232.84062776	    848.66197033	      4.27569811	     12.51938338	     39.63592976	     38.82376350	     45.00000000	    -31.20393624	  -2611.20263723	  -3171.41046178	     33.45714298	     46.79359642	   1452.25834472	     11.56368524	     19.79129955	      7.04305424	      7.64254591	    -45.00000000	    -36.65882833	     45.00000000	    -43.81096882	    459.36209563	    -91.54105351	    138.72738101	    150.82535032	   -349.33786537	     -3.77297575	      6.61664559	    -19.75463502
